<?xml version="1.0" encoding="utf-8"?>
<!-- Generator: Adobe Illustrator 22.0.0, SVG Export Plug-In . SVG Version: 6.00 Build 0)  -->
<svg version="1.1" id="Layer_1" xmlns="http://www.w3.org/2000/svg" xmlns:xlink="http://www.w3.org/1999/xlink" x="0px" y="0px"
	 viewBox="0 0 255.6 49.1" style="enable-background:new 0 0 255.6 49.1;" xml:space="preserve">
<style type="text/css">
	.st0{fill:#FFFFFF;}
</style>
<g>
	<path class="st0" d="M94.6,5.3c3.2,0,6.2,0,9.2,0c0.1,0.2,0.2,0.2,0.2,0.3c0,0.2,0.1,0.4,0.1,0.6c1,12.3,2,24.6,3,36.9
		c0,0.1,0,0.1-0.1,0.3c-0.1,0-0.2,0.1-0.4,0.1c-2.9,0-5.7,0-8.6,0c-0.2,0-0.3,0-0.4-0.1c-0.3-0.3-0.3-0.7-0.3-1
		c-0.3-3.9-0.5-7.7-0.8-11.6c-0.1-1.6-0.3-3.2-0.4-4.8c-0.4,0-0.4,0.3-0.5,0.5c-1.4,3.3-2.7,6.6-4.1,9.8c-0.2,0.4-0.3,0.8-0.5,1.2
		c-2.6,0-5.1,0-7.7,0c-0.1-0.3-0.3-0.6-0.4-0.9c-1.4-3.3-2.7-6.6-4.1-9.9c-0.1-0.3-0.1-0.6-0.5-0.8c-0.3,1.5-0.3,3-0.4,4.4
		c-0.1,1.5-0.2,2.9-0.3,4.4c-0.1,1.4-0.2,2.9-0.3,4.3C77,40.5,77,42,76.8,43.4c-0.2,0.1-0.4,0.1-0.5,0.1c-2.9,0-5.8,0-8.7,0
		c-0.1,0-0.2-0.1-0.3-0.1c0-0.1-0.1-0.2-0.1-0.3c0.1-2.3,3-36.7,3.2-37.6c0.2,0,0.4-0.1,0.6-0.1c2.7,0,5.3,0,8,0c0.2,0,0.4,0,0.6,0
		c0.3,0.4,0.4,0.8,0.6,1.3c2.1,5.3,4.2,10.6,6.3,15.8c0.2,0.4,0.4,0.8,0.6,1.4c0.6-1.1,0.9-2.2,1.4-3.2c0.4-1,0.8-2,1.2-3
		c0.4-1,0.8-2.1,1.2-3.1c0.4-1,0.8-2,1.2-3c0.4-1,0.8-2.1,1.2-3.1C93.7,7.4,94.1,6.4,94.6,5.3z"/>
	<path class="st0" d="M119.1,28.2c-0.4-0.5-0.8-0.7-1.2-1c-1.5-0.9-2.4-2.2-3.1-3.7c-1-2-1.3-4.2-1.2-6.4c0.1-2.2,0.6-4.4,1.7-6.3
		c1.9-3.1,4.7-4.8,8.2-5.2c1.3-0.2,2.5-0.2,3.8-0.2c4,0,8,0,12.1,0c0.3,0,0.7,0,1.1,0.1c0,0.3,0.1,0.5,0.1,0.7c0,0.3,0,0.5,0,0.8
		c0,11.7,0,23.4,0,35c0,0.5,0,0.9,0,1.4c-0.3,0.1-0.5,0.2-0.7,0.2c-2.8,0-5.6,0-8.4,0c-0.2,0-0.4-0.1-0.6-0.1
		c-0.2-1.1-0.1-2.1-0.1-3.2c0-1.1,0-2.2,0-3.2c0-1,0-2.1,0-3.1c0-1,0-2.1,0-3.1c-0.8-0.3-0.9-0.3-2.4-0.2c-0.2,0.3-0.4,0.7-0.6,1
		c-2.1,3.6-4.2,7.3-6.3,10.9c-0.2,0.3-0.4,0.6-0.6,0.9c-3.5,0-7,0-10.4,0c-0.1,0-0.2-0.1-0.3-0.1c0-0.5,0.3-0.8,0.5-1.1
		c2.6-4.3,5.2-8.7,7.8-13C118.7,28.9,118.9,28.5,119.1,28.2z M130.8,14.2c-1.6,0-3.2-0.1-4.8,0.2c-0.2,0-0.4,0.1-0.6,0.1
		c-0.9,0.2-1.5,0.8-1.8,1.7c-0.5,1.3-0.4,2.6,0.1,3.9c0.3,0.7,0.8,1.1,1.5,1.4c0.5,0.2,1,0.3,1.6,0.3c1.1,0,2.2,0,3.4,0
		c0.2,0,0.4-0.1,0.6-0.1C131,20.5,131,15.2,130.8,14.2z"/>
	<path class="st0" d="M152.6,28.2c-0.5-0.5-1-0.8-1.4-1.1c-1.1-0.7-1.8-1.6-2.4-2.7c-1-1.7-1.5-3.6-1.6-5.6c-0.1-1.4,0-2.8,0.2-4.2
		c1-4.9,4.8-8.4,9.7-9c1.3-0.1,2.6-0.2,3.9-0.2c3.9,0,7.9,0,11.8,0c0.4,0,0.8,0,1.2,0.1c0,0.3,0.1,0.5,0.1,0.7c0,0.3,0,0.5,0,0.8
		c0,11.7,0,23.4,0,35.1c0,0.5,0,0.9,0,1.4c-0.3,0.1-0.5,0.1-0.7,0.1c-2.8,0-5.6,0-8.4,0c-0.1,0-0.3,0-0.5-0.1
		c-0.3-0.4-0.2-0.8-0.2-1.3c0-3.4,0-6.8,0-10.2c0-0.4,0-0.8,0-1.3c-0.8-0.3-1.6-0.1-2.4-0.1c-2.6,4.3-5,8.7-7.5,12.9
		c-1.3,0.1-9.9,0.1-10.8,0c-0.1-0.4,0.2-0.6,0.4-0.9c1.1-1.9,2.3-3.8,3.4-5.7c1.6-2.6,3.1-5.2,4.7-7.9
		C152.3,28.7,152.4,28.5,152.6,28.2z M164.4,21.8c0-1,0-1.8,0-2.6c0-0.9,0-1.7,0-2.6c0-0.8,0.1-1.6-0.1-2.4
		c-0.2-0.1-0.3-0.1-0.4-0.1c-1,0-2.1,0-3.1,0c-0.5,0-1.1,0.1-1.6,0.2c-1.1,0.3-1.8,1-2.1,2.1c-0.2,0.8-0.2,1.6-0.1,2.4
		c0.3,1.9,1.4,2.8,3.3,2.9c0.7,0,1.3,0,2,0C162.9,21.8,163.6,21.8,164.4,21.8z"/>
	<path class="st0" d="M34.1,5.3c0,0.5,0.1,0.8,0.1,1.2c0,1.9,0,3.8,0,5.7c0,0.7-0.2,1.2-0.6,1.7c-2.5,2.8-5,5.6-7.5,8.4
		c-0.2,0.2-0.4,0.5-0.6,0.8c0.4,0.5,0.8,1,1.1,1.5c2.4,3.2,4.9,6.3,7.3,9.4c0.3,0.4,0.6,0.9,0.6,1.5c0,2.4,0,4.9,0,7.3
		c0,0.2,0,0.4-0.1,0.6c-0.2,0-0.4,0.1-0.7,0.1c-0.3,0-0.5,0-0.8,0c-8.5,0-16.9,0-25.4,0c-0.5,0-0.9,0.1-1.4-0.1
		c0-0.2-0.1-0.4-0.1-0.5c-0.1-1.8,0-7.2,0.1-8c0.2-0.3,0.6-0.2,0.9-0.2c2,0,4,0,6,0c2.7,0,5.3,0,8,0c0.4,0,0.8,0.1,1.1-0.1
		c0-0.1,0-0.1,0-0.2c0,0,0-0.1,0-0.1c-0.1-0.1-0.1-0.2-0.2-0.3c-2.6-3.6-5.2-7.1-7.8-10.7c0,0,0-0.1-0.1-0.1c0,0,0-0.1-0.1-0.2
		c0.2-0.2,0.3-0.5,0.5-0.7c2.1-2.4,4.2-4.9,6.3-7.3c0.2-0.2,0.3-0.4,0.5-0.6c-0.2-0.4-0.6-0.2-0.9-0.2c-4.1,0-8.3,0-12.4,0
		c-0.4,0-0.8,0-1.3,0c-0.1-0.3-0.1-0.5-0.1-0.7c0-2.4,0-4.9,0-7.3c0-0.2,0-0.4,0.1-0.7c0.3,0,0.6-0.1,0.9-0.1c1.8,0,3.6,0,5.5,0
		c6.5,0,13,0,19.5,0C33.1,5.3,33.5,5.3,34.1,5.3z"/>
	<path class="st0" d="M37.8,43.5C37.7,42.4,37.6,9,37.7,6c0-0.2,0.1-0.4,0.1-0.6c0.2,0,0.3-0.1,0.5-0.1c3,0,6,0,8.9,0
		c0.4,0.4,0.2,0.9,0.2,1.3c0,3.2,0,6.3,0,9.5c0,0.4-0.1,0.9,0.2,1.3c0.3,0,0.6,0.1,1,0.1c1.2,0,2.4,0,3.6,0c1.3,0,2.6,0.1,3.9,0.5
		c4.3,1.2,7.1,4,8.4,8.2c0.9,2.8,0.9,5.6,0.1,8.5c-1.3,4.9-5.4,8.3-10.4,8.7c-0.7,0.1-1.4,0.1-2.1,0.1c-4.3,0-8.7,0-13,0
		C38.6,43.5,38.3,43.5,37.8,43.5z M47.4,34.6c0.3,0,0.5,0.1,0.7,0.1c1.2,0,2.3,0,3.5,0c0.3,0,0.5,0,0.8-0.1c1.2-0.2,2.1-0.9,2.5-2.1
		c0.4-1.3,0.4-2.7-0.1-4c-0.4-1.1-1.3-1.7-2.4-2c-0.2-0.1-0.5-0.1-0.7-0.1c-1.3,0-2.5,0-3.8,0c-0.1,0-0.3,0.1-0.6,0.1
		C47.4,29.2,47.4,31.8,47.4,34.6z"/>
</g>
</svg>
