<?xml version="1.0" encoding="utf-8"?>
<!-- Generator: Adobe Illustrator 22.0.0, SVG Export Plug-In . SVG Version: 6.00 Build 0)  -->
<svg version="1.1" id="Слой_1" xmlns="http://www.w3.org/2000/svg" xmlns:xlink="http://www.w3.org/1999/xlink" x="0px" y="0px"
	 viewBox="0 0 100 100" style="enable-background:new 0 0 100 100;" xml:space="preserve">
<style type="text/css">
	.st0{fill:#FFFFFF;}
	.st1{fill:#F47721;}
</style>
<g id="Слой_x0020_1">
	<g id="_2342816319600">
		<path class="st0" d="M16.4,26.6L16.4,26.6c0.2-0.1,1.9-0.9,3.8-1.3c-8,7.8-13,18.6-13,30.7c0,1.3,0.1,2.5,0.2,3.7v-0.1
			c0-5.4,1.1-10.6,3-15.3c2-4.9,5-9.3,8.7-13c3-3,6.5-5.4,10.4-7.3c3.6-1.8,7.5-3,11.5-3.7c0.3-0.1,0.6-0.2,1-0.2
			c7-1,12.8,3.6,15.2-0.9c-3.8,3.5-8.8-2.3-8.8-5.6l-1.8-0.1c4.7-0.9,6.9-6.9,10-8.7c1,1.7,1.5,3.5,1.8,6.1c0.5-2.1,0.2-4.3-0.7-6.6
			c0.3-0.1,0.6-0.1,1-0.1c0.7,1.4,1.1,2.9,1.3,5.1c0.5-4-0.6-5-1.9-7.5c-8.2,0.4-9.8,7.7-19.3,9.1c1.1,2.5,2.9,2.5,3.2,3.2
			c-5.8,1.1-11.1,3.3-15.8,6.4C23.2,21.9,18.8,24.6,16.4,26.6L16.4,26.6z M43.2,11L43.2,11c1.3-0.3,4-2.8,5.5-3.1
			c-2.6,1.8-2.6,3-4.3,4C44.2,11.6,43.5,11.3,43.2,11z"/>
		<path class="st0" d="M41.9,14.7L41.9,14.7v-0.7C42.1,13.9,42,14.2,41.9,14.7z"/>
		<path class="st0" d="M81.8,40.3L81.8,40.3c1,2.7,3,6.6,4.3,8.5c0.3,2.2,0.5,4.6,0.5,7.1c0,7.3-2.1,14.1-5.8,19.9
			c5-6.5,8-14.6,8-23.4c0-10.7-4.4-20.4-11.5-27.4c-5.9-5.8-13.6-9.8-22.3-11c7.4,2.3,24.8,10.4,30.1,29.8
			C83.8,44,81.9,40.6,81.8,40.3L81.8,40.3z"/>
		<path class="st1" d="M63.1,26L63.1,26c0.3-1.1,0.3-4.3-0.6-6.4c1.5,0.4,4.2,3.7,5.6,5.1c-7.5-11.4-13.6-5.5-18.5-10.9
			C53.9,20.5,63.1,13.4,63.1,26z"/>
		<path class="st0" d="M75.4,21.8C85.8,29.6,92.5,42,92.5,56c0,10.9-4.1,20.8-10.8,28.3c1.9-0.5,3.5-1.4,3.7-1.5
			c-2.2,2.1-6.4,5.1-9.3,6.8c-7.2,5.7-16.4,9.1-26.3,9.1c-10.2,0-19.7-3.6-27-9.6c0.6,1.9,1.6,3.4,1.7,3.6c-2.2-2.1-5.4-6.2-7.2-9
			c-1.8-2.1-3.3-4.3-4.7-6.7c-0.4-0.8-0.8-1.7-1.1-2.5c-1.9-4.6-2.9-9.6-2.9-14.8s1-10.2,2.9-14.8c2-4.7,4.8-9,8.4-12.6
			c2.8-2.8,6.1-5.1,9.7-6.9C21,31,14.9,40.3,13.4,51c0.6,2.1,1.4,6.8,1.6,9.9c0-0.3-0.7-3.9-1.9-4.4c0.3,18.7,14.5,34,32.7,36
			c2.1-0.6,6.8-1.5,10-1.7c-0.3,0-3.7,0.7-4.4,1.8c5.8-0.2,11.2-1.8,15.9-4.4c4-1.9,7.6-4.5,10.7-7.6C85.4,73.5,90,63.5,90,52.5
			s-4.5-21-11.9-28.2C77.2,23.4,76.3,22.6,75.4,21.8L75.4,21.8z"/>
		<g>
			<path class="st0" d="M28.4,53.8L25.3,57l3.5,3.7l-10,6.7l0.2,1.3c4-2.1,2.7-1.5,7.6-4.2l3-1.7l2.8-1.7L28.5,57l3.5-3.7l-12.4-8
				l-1.1,3.1C23.9,51.4,23.6,51.2,28.4,53.8L28.4,53.8z"/>
			<path class="st0" d="M36.3,56.2l0.6-8.3h-1.8l-1.4,18.5l8.9-6.8L36.3,56.2z M36.3,61.6L36.3,61.6v-4l2.4,2.1L36.3,61.6L36.3,61.6
				z"/>
			<polygon class="st0" points="40.9,69.7 44.6,66.6 44.3,66.5 47.1,53.8 50.4,61 54.9,54.9 55.9,65.2 55.9,66.4 58.5,66.4 58.2,65 
				56.6,48.7 50.8,56.5 46.3,46.7 			"/>
			<path class="st0" d="M61.4,65.5l5.2-7.4l-0.2,6.6L66,65.9H69l-0.3-1.3l0.6-17.2l-9.4,6.4l4.2,4l-4,5.4l0.8,3.5L61.4,65.5
				L61.4,65.5z M66.8,51.9L66.8,51.9l-0.2,5.4l-3.2-3.1L66.8,51.9L66.8,51.9z"/>
			<path class="st0" d="M72.5,65.5l5.2-7.4l-0.2,6.6l-0.3,1.4h2.9l-0.3-1.3l0.6-17.2l-9.4,6.4l4.2,4L70,64.9l1.8,2L72.5,65.5
				L72.5,65.5z M77.9,51.9L77.9,51.9l-0.2,5.4l-3.2-3.1L77.9,51.9L77.9,51.9z"/>
			<polygon class="st0" points="20.7,41.7 80.5,43.5 80.2,44.6 20,44 			"/>
			<polygon class="st0" points="20.2,70.2 80.7,69.9 79.8,72.4 20.3,70.9 			"/>
		</g>
	</g>
</g>
</svg>
